<svg xmlns="http://www.w3.org/2000/svg" viewBox="0 0 64 64" role="img" aria-label="Reimbursement">
  <defs>
    <linearGradient id="bg" x1="0" y1="0" x2="1" y2="1">
      <stop offset="0%" stop-color="#071833" />
      <stop offset="58%" stop-color="#1e4d93" />
      <stop offset="100%" stop-color="#5d8fd8" />
    </linearGradient>
    <radialGradient id="topLight" cx="20%" cy="14%" r="78%">
      <stop offset="0%" stop-color="#ffffff" stop-opacity=".24" />
      <stop offset="56%" stop-color="#ffffff" stop-opacity=".05" />
      <stop offset="100%" stop-color="#ffffff" stop-opacity="0" />
    </radialGradient>
    <linearGradient id="mark" x1="0" y1="0" x2="0" y2="1">
      <stop offset="0%" stop-color="#ffffff" />
      <stop offset="100%" stop-color="#d5e6ff" />
    </linearGradient>
    <filter id="markShadow" x="-20%" y="-20%" width="140%" height="140%">
      <feDropShadow dx="0" dy="1.4" stdDeviation="1.2" flood-color="#05142f" flood-opacity=".45" />
    </filter>
  </defs>

  <rect x="3" y="3" width="58" height="58" rx="14" fill="url(#bg)" />
  <rect x="3" y="3" width="58" height="58" rx="14" fill="url(#topLight)" />
  <path d="M8.5 6.2C16.8 4.4 28.3 5.5 37 11.8c-7.2.8-17.9 2.6-28.5 12.4z" fill="#ffffff" opacity=".08" />
  <rect x="4.2" y="4.2" width="55.6" height="55.6" rx="12.8" fill="none" stroke="#d3e4ff" stroke-opacity=".26" stroke-width="1.1" />

  <path
    d="M21 15v34M21 15h15.2c6 0 10.8 4.9 10.8 10.8s-4.8 10.8-10.8 10.8H21M36 36.6 47 49"
    fill="none"
    stroke="url(#mark)"
    stroke-width="7"
    stroke-linecap="round"
    stroke-linejoin="round"
    filter="url(#markShadow)"
  />
</svg>
